<svg xmlns="http://www.w3.org/2000/svg" viewBox="0 0 332.686 432.567"><defs><style>.cls-1{fill:#e8e8e8;}.cls-2{fill:#224456;}.cls-3{fill:#2a5d70;}.cls-4{fill:#66acbc;}.cls-5{fill:#478ba0;}.cls-6{fill:#d0e8ef;}</style></defs><title>dupbot logos [Recovered]</title><g id="Layer_2" data-name="Layer 2"><path class="cls-1" d="M361.722,191.791c-26.835,0-47.2-1.009-62.643-1.032s-25.979.938-33.157,4.879-11,10.861-13.031,22.754-2.263,28.758-2.263,52.591.234,40.7,2.263,52.591,5.852,18.813,13.031,22.754,17.71,4.9,33.157,4.879,35.808-1.032,62.643-1.032,47.2,1.009,62.643,1.032,25.979-.938,33.157-4.879,11-10.861,13.031-22.754,2.263-28.758,2.263-52.591-.234-40.7-2.263-52.591-5.853-18.813-13.031-22.754-17.711-4.9-33.157-4.879S388.557,191.791,361.722,191.791Z" transform="translate(-195.473 -77.493)"/><path class="cls-1" d="M485.751,208.272l.17.013S482.575,78.626,476.382,77.5s-2.44,129.867-2.44,129.867c8.194,46.615,9.126,87.571,2.44,122.916C538.588,334.359,548.392,219.625,485.751,208.272Z" transform="translate(-195.473 -77.493)"/><path class="cls-1" d="M237.881,208.272l-.17.013S241.057,78.626,247.25,77.5s2.44,129.867,2.44,129.867c-8.194,46.615-9.126,87.571-2.44,122.916C185.045,334.359,175.24,219.625,237.881,208.272Z" transform="translate(-195.473 -77.493)"/><path class="cls-1" d="M361.722,510.06h130.61q-3.582-73.489-34.9-144.5-34.783-6.358-95.706-6.756" transform="translate(-195.473 -77.493)"/><path class="cls-1" d="M361.722,510.06H231.111q3.582-73.489,34.905-144.5,34.782-6.358,95.706-6.756" transform="translate(-195.473 -77.493)"/></g><g id="Layer_3" data-name="Layer 3"><path class="cls-2" d="M432.281,218.562H291.162c-14.512,0-14.762,104.84-3.594,104.84H435.875C447.044,323.4,446.794,218.562,432.281,218.562Z" transform="translate(-195.473 -77.493)"/></g><g id="Layer_9" data-name="Layer 9"><path class="cls-3" d="M443.1,256.512c-.348-5.22-.843-10.208-1.473-14.783H281.814c-.631,4.575-1.126,9.563-1.474,14.783Z" transform="translate(-195.473 -77.493)"/><path class="cls-3" d="M440.474,315.646a102.364,102.364,0,0,0,2.272-14.784H280.7a102.364,102.364,0,0,0,2.272,14.784Z" transform="translate(-195.473 -77.493)"/><path class="cls-3" d="M279.82,286.079h163.8c.143-4.805.175-9.789.088-14.783H279.732C279.645,276.29,279.676,281.274,279.82,286.079Z" transform="translate(-195.473 -77.493)"/><path class="cls-3" d="M438.539,226.946c-1.672-5.194-3.746-8.384-6.258-8.384H291.162c-2.511,0-4.586,3.19-6.258,8.384Z" transform="translate(-195.473 -77.493)"/></g><g id="Layer_5" data-name="Layer 5"><path class="cls-4" d="M334.608,246.58a3.011,3.011,0,0,0-4.276,2.691c-.329,36.657,11.411,52.493,31.39,54.114,19.978-1.621,31.718-17.457,31.389-54.114a3.011,3.011,0,0,0-4.276-2.691C381.293,249.871,342.151,249.871,334.608,246.58Z" transform="translate(-195.473 -77.493)"/><path class="cls-5" d="M361.722,274.847c-12.251.763-20.931,1.29-26.039,9.308q7.662,17.8,26.039,19.23,18.377-1.434,26.038-19.23C382.652,276.137,373.973,275.61,361.722,274.847Z" transform="translate(-195.473 -77.493)"/></g><g id="Layer_6" data-name="Layer 6"><ellipse class="cls-4" cx="220.544" cy="189.737" rx="13.261" ry="28.149"/><ellipse class="cls-4" cx="111.953" cy="189.737" rx="13.261" ry="28.149"/><ellipse class="cls-6" cx="411.897" cy="250.98" rx="7.819" ry="2.907" transform="translate(-188.883 434.977) rotate(-64.184)"/><ellipse class="cls-6" cx="302.867" cy="250.98" rx="7.819" ry="2.907" transform="translate(-250.431 336.829) rotate(-64.184)"/></g></svg>